<svg width="32" height="32" viewBox="0 0 32 32" fill="none" xmlns="http://www.w3.org/2000/svg">
<g clip-path="url(#clip0_47_3522)">
<path d="M28.3324 5.31806C28.3324 4.15175 27.3869 3.20631 26.2206 3.20631H24.8459C23.9955 3.20631 7.18575 3.20631 6.62394 3.20631C6.10925 3.20631 2.77969 3.20631 2.11181 3.20631C0.945625 3.20631 0 4.15181 0 5.31806V29.4267C0 30.0303 0.253687 30.5743 0.65975 30.9592H26.2206V31.5385H29.9197C30.8286 31.5385 31.6033 30.9643 31.9011 30.1588C32.1478 29.5066 32.2351 30.7535 28.3324 5.31806Z" fill="#BABABA"/>
<path d="M29.6219 29.4268V13.723L28.3323 5.31806C28.3323 4.15175 27.3867 3.20631 26.2204 3.20631C25.529 3.20631 8.8763 3.20631 7.91343 3.20631H6.62386H6.10805C4.91355 3.20631 5.31536 3.20631 3.40136 3.20631C2.23518 3.20631 1.28955 4.15175 1.28955 5.31806V29.4267C1.28955 30.0303 1.54324 30.5743 1.9493 30.9592H26.2206V31.5385H27.5101C28.6763 31.5386 29.6219 30.5931 29.6219 29.4268Z" fill="#A8A8A8"/>
<path d="M26.2206 3.20631C25.4816 3.20631 7.84094 3.20631 6.62394 3.20631C5.89531 3.20631 2.60444 3.20631 2.11181 3.20631C0.945625 3.20631 0 4.15181 0 5.31806V29.4267C0 30.5931 0.945625 31.5385 2.11181 31.5385H26.2205C27.3868 31.5385 28.3324 30.5931 28.3324 29.4267V5.31806C28.3324 4.15181 27.3868 3.20631 26.2206 3.20631Z" fill="#E6E6E6"/>
<path d="M1.28956 29.4268V5.31806C1.28956 4.15175 2.23519 3.20631 3.40138 3.20631C2.6745 3.20631 2.841 3.20631 2.11181 3.20631C0.945625 3.20631 0 4.15181 0 5.31806V29.4267C0 30.5931 0.945625 31.5385 2.11181 31.5385H3.40138C2.23525 31.5386 1.28956 30.5931 1.28956 29.4268Z" fill="#CCCBCA"/>
<path d="M26.2206 3.20631C25.3816 3.20631 8.02425 3.20631 6.62394 3.20631C1.62413 3.20631 6.79206 3.20631 2.11181 3.20631C0.945625 3.20631 0 4.15181 0 5.31806V10.7428H28.3324V5.31806C28.3324 4.15181 27.3868 3.20631 26.2206 3.20631Z" fill="#EA473B"/>
<path d="M1.28956 5.31806C1.28956 4.15175 2.23519 3.20631 3.40138 3.20631C2.6745 3.20631 2.841 3.20631 2.11181 3.20631C0.945625 3.20631 0 4.15181 0 5.31806V10.7428H1.28956V5.31806Z" fill="#D63322"/>
<path d="M22.6148 5.09431V5.53394C22.6148 5.96131 22.2684 5.98531 21.8411 5.98531H21.5831C21.1558 5.98531 20.8094 5.96131 20.8094 5.53394V5.09438C20.4003 5.37988 20.1323 5.85375 20.1323 6.3905C20.1323 7.263 20.8396 7.97025 21.7121 7.97025C23.2594 7.97019 23.874 5.97306 22.6148 5.09431Z" fill="#414356"/>
<path d="M14.6192 5.09431V5.53394C14.6192 5.96131 14.2728 5.92081 13.8455 5.92081H13.5875C13.1602 5.92081 12.8138 5.96131 12.8138 5.53394V5.09438C12.4047 5.37988 12.1367 5.85375 12.1367 6.3905C12.1367 7.263 12.844 7.97025 13.7165 7.97025C14.589 7.97025 15.2962 7.263 15.2962 6.3905C15.2962 5.85375 15.0283 5.37981 14.6192 5.09431Z" fill="#414356"/>
<path d="M6.62386 5.09431V5.53394C6.62386 6.03219 6.15492 5.98531 5.59217 5.98531C5.16486 5.98531 4.81843 5.96131 4.81843 5.53394V5.09438C3.55799 5.974 4.1758 7.97025 5.72111 7.97025C6.59361 7.97025 7.30086 7.263 7.30086 6.3905C7.30086 5.85375 7.03293 5.37981 6.62386 5.09431Z" fill="#414356"/>
<path d="M21.4864 6.3905C21.4864 6.36056 21.4876 6.33094 21.4892 6.30144C21.1063 6.255 20.8094 5.92944 20.8094 5.53394V5.09438C20.4003 5.37988 20.1323 5.85375 20.1323 6.3905C20.1323 7.263 20.8396 7.97025 21.7121 7.97025C21.9544 7.97025 22.1839 7.91556 22.3891 7.818C21.8554 7.56444 21.4864 7.02063 21.4864 6.3905Z" fill="#2F3242"/>
<path d="M13.4913 6.3905C13.4913 6.36056 13.4925 6.33094 13.4941 6.30144C13.1111 6.255 12.8143 5.92944 12.8143 5.53394V5.09438C12.4051 5.37988 12.1372 5.85375 12.1372 6.3905C12.1372 7.263 12.8445 7.97025 13.717 7.97025C13.9593 7.97025 14.1888 7.91556 14.394 7.818C13.8603 7.56444 13.4913 7.02063 13.4913 6.3905Z" fill="#2F3242"/>
<path d="M5.49848 6.30144C5.11554 6.255 4.81866 5.92944 4.81866 5.53394V5.09438C4.40954 5.37988 4.1416 5.85375 4.1416 6.3905C4.1416 7.554 5.35685 8.31294 6.39835 7.818C5.83248 7.54906 5.46185 6.96125 5.49848 6.30144Z" fill="#2F3242"/>
<path d="M28.3325 10.7426H0V12.548H28.3325V10.7426Z" fill="#F77C79"/>
<path d="M1.28956 10.7426H0V12.548H1.28956V10.7426Z" fill="#DD6464"/>
<path d="M5.85005 0.461563C6.27742 0.461563 6.6238 0.808001 6.6238 1.23531V5.53394C6.6238 5.96131 6.27742 6.30769 5.85005 6.30769H5.59211C5.1648 6.30769 4.81836 5.96131 4.81836 5.53394V1.23531C4.81836 0.808001 5.1648 0.461563 5.59211 0.461563H5.85005Z" fill="#585A60"/>
<path d="M13.8457 0.461563C14.273 0.461563 14.6194 0.808001 14.6194 1.23531V5.53394C14.6194 5.96131 14.273 6.30769 13.8457 6.30769H13.5877C13.1604 6.30769 12.814 5.96131 12.814 5.53394V1.23531C12.814 0.808001 13.1604 0.461563 13.5877 0.461563H13.8457Z" fill="#585A60"/>
<path d="M21.8413 0.461563C22.2686 0.461563 22.615 0.808001 22.615 1.23531V5.53394C22.615 5.96131 22.2686 6.30769 21.8413 6.30769H21.5833C21.156 6.30769 20.8096 5.96131 20.8096 5.53394V1.23531C20.8096 0.808001 21.156 0.461563 21.5833 0.461563H21.8413Z" fill="#585A60"/>
<path d="M5.85005 0.461563C6.27742 0.461563 6.6238 0.808001 6.6238 1.23531V5.53394C6.6238 5.96131 6.27742 6.30769 5.85005 6.30769H5.59211C5.1648 6.30769 4.81836 5.96131 4.81836 5.53394V1.23531C4.81836 0.808001 5.1648 0.461563 5.59211 0.461563H5.85005Z" fill="#585A60"/>
<path d="M13.8457 0.461563C14.273 0.461563 14.6194 0.808001 14.6194 1.23531V5.53394C14.6194 5.96131 14.273 6.30769 13.8457 6.30769H13.5877C13.1604 6.30769 12.814 5.96131 12.814 5.53394V1.23531C12.814 0.808001 13.1604 0.461563 13.5877 0.461563H13.8457Z" fill="#585A60"/>
<path d="M21.8413 0.461563C22.2686 0.461563 22.615 0.808001 22.615 1.23531V5.53394C22.615 5.96131 22.2686 6.30769 21.8413 6.30769H21.5833C21.156 6.30769 20.8096 5.96131 20.8096 5.53394V1.23531C20.8096 0.808001 21.156 0.461563 21.5833 0.461563H21.8413Z" fill="#585A60"/>
<path d="M5.72105 5.53394V1.23531C5.72105 0.923188 5.9063 0.654938 6.17242 0.532563C6.07417 0.487438 5.96523 0.461563 5.85005 0.461563H5.59211C5.1648 0.461563 4.81836 0.808001 4.81836 1.23531V5.53394C4.81836 5.96131 5.1648 6.30769 5.59211 6.30769H5.85005C5.9653 6.30769 6.07423 6.28181 6.17242 6.23669C5.9063 6.11438 5.72105 5.84606 5.72105 5.53394Z" fill="#414356"/>
<path d="M13.7167 5.53394V1.23531C13.7167 0.923188 13.9019 0.654938 14.168 0.532563C14.0698 0.487438 13.9608 0.461563 13.8457 0.461563H13.5877C13.1604 0.461563 12.814 0.808001 12.814 1.23531V5.53394C12.814 5.96131 13.1604 6.30769 13.5877 6.30769H13.8457C13.9609 6.30769 14.0698 6.28181 14.168 6.23669C13.9019 6.11438 13.7167 5.84606 13.7167 5.53394Z" fill="#414356"/>
<path d="M21.7118 5.53394V1.23531C21.7118 0.923188 21.897 0.654938 22.1631 0.532563C22.0649 0.487438 21.956 0.461563 21.8408 0.461563H21.5828C21.1555 0.461563 20.8091 0.808001 20.8091 1.23531V5.53394C20.8091 5.96131 21.1555 6.30769 21.5828 6.30769H21.8408C21.956 6.30769 22.065 6.28181 22.1631 6.23669C21.897 6.11438 21.7118 5.84606 21.7118 5.53394Z" fill="#414356"/>
<path d="M10.5377 15.5112H8.94554C8.67848 15.5112 8.46191 15.7277 8.46191 15.9948C8.46191 16.2619 8.67848 16.4784 8.94554 16.4784H10.5377C10.8048 16.4784 11.0213 16.2619 11.0213 15.9948C11.0213 15.7277 10.8048 15.5112 10.5377 15.5112Z" fill="#585A60"/>
<path d="M14.9641 15.5112H13.3718C13.1047 15.5112 12.8882 15.7277 12.8882 15.9948C12.8882 16.2619 13.1047 16.4784 13.3718 16.4784H14.9641C15.2312 16.4784 15.4477 16.2619 15.4477 15.9948C15.4477 15.7277 15.2312 15.5112 14.9641 15.5112Z" fill="#585A60"/>
<path d="M19.39 15.5112H17.7976C17.5305 15.5112 17.314 15.7277 17.314 15.9948C17.314 16.2619 17.5305 16.4784 17.7976 16.4784H19.39C19.657 16.4784 19.8736 16.2619 19.8736 15.9948C19.8736 15.7277 19.657 15.5112 19.39 15.5112Z" fill="#585A60"/>
<path d="M23.8162 15.5112H22.2239C21.9568 15.5112 21.7402 15.7277 21.7402 15.9948C21.7402 16.2619 21.9568 16.4784 22.2239 16.4784H23.8162C24.0833 16.4784 24.2998 16.2619 24.2998 15.9948C24.2997 15.7277 24.0833 15.5112 23.8162 15.5112Z" fill="#585A60"/>
<path d="M6.11158 19.4074H4.51927C4.25221 19.4074 4.03564 19.6239 4.03564 19.8911C4.03564 20.1581 4.25221 20.3747 4.51927 20.3747H6.11158C6.37871 20.3747 6.59521 20.1582 6.59521 19.8911C6.59514 19.6239 6.37871 19.4074 6.11158 19.4074Z" fill="#585A60"/>
<path d="M10.5377 19.4074H8.94554C8.67848 19.4074 8.46191 19.6239 8.46191 19.8911C8.46191 20.1581 8.67848 20.3747 8.94554 20.3747H10.5377C10.8048 20.3747 11.0213 20.1582 11.0213 19.8911C11.0213 19.6239 10.8048 19.4074 10.5377 19.4074Z" fill="#585A60"/>
<path d="M14.9641 19.4074H13.3718C13.1047 19.4074 12.8882 19.6239 12.8882 19.8911C12.8882 20.1581 13.1047 20.3747 13.3718 20.3747H14.9641C15.2312 20.3747 15.4477 20.1582 15.4477 19.8911C15.4477 19.6239 15.2312 19.4074 14.9641 19.4074Z" fill="#585A60"/>
<path d="M19.39 19.4074H17.7976C17.5305 19.4074 17.314 19.6239 17.314 19.8911C17.314 20.1581 17.5305 20.3747 17.7976 20.3747H19.39C19.657 20.3747 19.8736 20.1582 19.8736 19.8911C19.8736 19.6239 19.657 19.4074 19.39 19.4074Z" fill="#585A60"/>
<path d="M23.8162 19.4074H22.2239C21.9568 19.4074 21.7402 19.6239 21.7402 19.8911C21.7402 20.1581 21.9568 20.3747 22.2239 20.3747H23.8162C24.0833 20.3747 24.2998 20.1582 24.2998 19.8911C24.2997 19.6239 24.0833 19.4074 23.8162 19.4074Z" fill="#585A60"/>
<path d="M6.11158 23.3037H4.51927C4.25221 23.3037 4.03564 23.5202 4.03564 23.7873C4.03564 24.0544 4.25221 24.2709 4.51927 24.2709H6.11158C6.37871 24.2709 6.59521 24.0544 6.59521 23.7873C6.59521 23.5202 6.37871 23.3037 6.11158 23.3037Z" fill="#585A60"/>
<path d="M10.5377 23.3037H8.94554C8.67848 23.3037 8.46191 23.5202 8.46191 23.7873C8.46191 24.0544 8.67848 24.2709 8.94554 24.2709H10.5377C10.8048 24.2709 11.0213 24.0544 11.0213 23.7873C11.0213 23.5202 10.8048 23.3037 10.5377 23.3037Z" fill="#585A60"/>
<path d="M14.9641 23.3037H13.3718C13.1047 23.3037 12.8882 23.5202 12.8882 23.7873C12.8882 24.0544 13.1047 24.2709 13.3718 24.2709H14.9641C15.2312 24.2709 15.4477 24.0544 15.4477 23.7873C15.4477 23.5202 15.2312 23.3037 14.9641 23.3037Z" fill="#585A60"/>
<path d="M19.39 23.3037H17.7976C17.5305 23.3037 17.314 23.5202 17.314 23.7873C17.314 24.0544 17.5305 24.2709 17.7976 24.2709H19.39C19.657 24.2709 19.8736 24.0544 19.8736 23.7873C19.8736 23.5202 19.657 23.3037 19.39 23.3037Z" fill="#585A60"/>
<path d="M23.8162 23.3037H22.2239C21.9568 23.3037 21.7402 23.5202 21.7402 23.7873C21.7402 24.0544 21.9568 24.2709 22.2239 24.2709H23.8162C24.0833 24.2709 24.2998 24.0544 24.2998 23.7873C24.2998 23.5202 24.0833 23.3037 23.8162 23.3037Z" fill="#585A60"/>
<path d="M6.11158 27.2H4.51927C4.25221 27.2 4.03564 27.4165 4.03564 27.6836C4.03564 27.9507 4.25221 28.1672 4.51927 28.1672H6.11158C6.37871 28.1672 6.59521 27.9507 6.59521 27.6836C6.59514 27.4165 6.37871 27.2 6.11158 27.2Z" fill="#585A60"/>
<path d="M10.5377 27.2H8.94554C8.67848 27.2 8.46191 27.4165 8.46191 27.6836C8.46191 27.9507 8.67848 28.1672 8.94554 28.1672H10.5377C10.8048 28.1672 11.0213 27.9507 11.0213 27.6836C11.0213 27.4165 10.8048 27.2 10.5377 27.2Z" fill="#585A60"/>
<path d="M14.9641 27.2H13.3718C13.1047 27.2 12.8882 27.4165 12.8882 27.6836C12.8882 27.9507 13.1047 28.1672 13.3718 28.1672H14.9641C15.2312 28.1672 15.4477 27.9507 15.4477 27.6836C15.4477 27.4165 15.2312 27.2 14.9641 27.2Z" fill="#585A60"/>
<path d="M19.39 27.2H17.7976C17.5305 27.2 17.314 27.4165 17.314 27.6836C17.314 27.9507 17.5305 28.1672 17.7976 28.1672H19.39C19.657 28.1672 19.8736 27.9507 19.8736 27.6836C19.8736 27.4165 19.657 27.2 19.39 27.2Z" fill="#585A60"/>
</g>
<defs>
<clipPath id="clip0_47_3522">
<rect width="32" height="32" fill="white"/>
</clipPath>
</defs>
</svg>
